<svg width="221" height="40" viewBox="0 0 221 40" fill="none" xmlns="http://www.w3.org/2000/svg">
<g clip-path="url(#clip0_1048_1093)">
<path d="M58.4877 13.6249H56.0474C55.5565 13.6249 55.0887 13.3954 54.7881 13.0076C54.4874 12.6197 54.3843 12.1055 54.5194 11.6305L55.0495 9.65219C55.2398 8.96369 55.8659 8.48145 56.5791 8.48145H59.0193C59.5103 8.48145 59.978 8.71095 60.2787 9.09877C60.5793 9.4866 60.6825 10.0008 60.5488 10.4758L60.0187 12.4541C59.8284 13.1426 59.2023 13.6249 58.4891 13.6249H58.4877Z" fill="#F42112"/>
<path d="M156.976 13.6249H154.535C154.044 13.6249 153.577 13.3954 153.276 13.0076C152.975 12.6197 152.872 12.1055 153.006 11.6305L153.537 9.65219C153.728 8.96369 154.354 8.48145 155.065 8.48145H157.506C157.997 8.48145 158.464 8.71095 158.765 9.09877C159.067 9.4866 159.17 10.0008 159.035 10.4758L158.504 12.4541C158.315 13.1426 157.689 13.6249 156.976 13.6249Z" fill="#F42112"/>
<path d="M177.483 31.7382H175.043C174.552 31.7382 174.084 31.5087 173.784 31.1208C173.483 30.733 173.38 30.2188 173.514 29.7438L174.045 27.7655C174.235 27.077 174.861 26.5947 175.573 26.5947H178.013C178.504 26.5947 178.972 26.8242 179.273 27.2121C179.575 27.5999 179.678 28.1141 179.543 28.5891L179.011 30.5674C178.823 31.2559 178.197 31.7382 177.483 31.7382Z" fill="#F42112"/>
<path d="M30.9626 10.8038C31.6279 10.1386 32.421 9.92505 33.0223 9.92505C34.3616 9.92505 35.2636 11.0493 34.9949 12.3784L31.6598 29.4733C31.4144 30.7152 30.2015 31.7451 28.9581 31.7451C27.7147 31.7451 26.8665 30.7167 27.1047 29.4733L27.4373 27.8029H24.9186C23.7377 27.8029 23.1915 26.9241 23.1915 26.1644C23.1915 24.5579 24.554 23.56 25.7422 23.56H28.2609L29.2907 18.3135L6.8011 38.8059C6.1678 39.4159 5.46186 39.6527 4.82856 39.6527C3.58518 39.6527 2.91992 38.6795 2.91992 37.8007C2.91992 37.1354 3.1654 36.4397 3.7682 35.8296L30.9626 10.8038Z" fill="#F42112"/>
<path d="M36.0568 22.5015C36.8731 18.2282 40.3026 15.679 44.2157 15.679C48.1288 15.679 50.7114 18.8295 49.8879 23.1029L48.6125 29.6161C48.367 30.7955 47.2733 31.7368 46.0938 31.7368C44.9144 31.7368 44.1213 30.7955 44.3668 29.6161L45.7292 22.6439C46.1258 20.6728 45.0959 19.6124 43.5751 19.6124C42.0543 19.6124 40.6599 20.6728 40.272 22.6439L38.9096 29.6161C38.6641 30.7955 37.5703 31.7368 36.3909 31.7368C35.2114 31.7368 34.4183 30.7955 34.6638 29.6161L36.0582 22.4928V22.5015H36.0568Z" fill="#F42112"/>
<path d="M53.9605 17.8009C54.206 16.6214 55.2911 15.6802 56.4792 15.6802C57.6674 15.6802 58.4518 16.6214 58.2063 17.8009L55.9011 29.6245C55.6557 30.804 54.5706 31.7452 53.3824 31.7452C52.1943 31.7452 51.4099 30.804 51.6554 29.6245L53.9605 17.8009Z" fill="#F42112"/>
<path d="M60.4787 21.7099C61.2079 17.8868 64.1231 15.679 67.4262 15.679C69.1852 15.679 70.6102 16.2571 71.3713 17.9507C72.7657 16.2571 74.4696 15.679 76.2271 15.679C79.5302 15.679 81.7163 18.4969 80.9885 22.32L79.5622 29.6248C79.3167 30.8042 78.2316 31.7455 77.0434 31.7455C75.8553 31.7455 75.0709 30.8042 75.3164 29.6248L76.8052 21.9554C77.1059 20.3808 76.3767 19.6211 75.2844 19.6211C74.1921 19.6211 73.1608 20.3808 72.8601 21.9554L71.3713 29.6248C71.1258 30.8042 70.032 31.7455 68.8526 31.7455C67.6731 31.7455 66.88 30.8042 67.1255 29.6248L68.6144 21.9554C68.915 20.3808 68.1873 19.6211 67.0936 19.6211C65.9998 19.6211 64.97 20.3808 64.6693 21.9554L63.1804 29.6248C62.9349 30.8042 61.8499 31.7455 60.6617 31.7455C59.4735 31.7455 58.6892 30.8042 58.9347 29.6248L60.4802 21.7099H60.4787Z" fill="#F42112"/>
<path d="M82.9912 25.2003C82.9912 20.2298 87.1178 15.679 92.4893 15.679C95.04 15.679 96.7031 16.7713 97.5906 17.6181C98.0177 18.0451 98.2007 18.4969 98.2007 19.075C98.2007 19.5892 97.9872 20.2312 97.4715 20.7454L92.7421 25.2889C92.2584 25.748 91.4987 26.0167 90.9525 26.0167C89.7716 26.0167 89.1616 25.1059 89.1616 24.323C89.1616 23.6272 89.4622 22.962 89.9227 22.503L92.8379 19.717C92.6869 19.6851 92.3862 19.6226 92.0463 19.6226C89.4405 19.6226 87.2849 22.0207 87.2849 24.5612C87.2849 26.3813 88.5602 27.8062 90.4689 27.8062C91.5307 27.8062 92.623 27.324 93.2882 26.7778C93.8663 26.2956 94.5011 25.9629 95.1969 25.9629C96.3778 25.9629 96.9239 26.8417 96.9239 27.6333C96.9239 28.3611 96.5913 29.1207 95.9812 29.6044C94.7379 30.6328 92.6142 31.7571 89.9997 31.7571C85.873 31.7571 82.9883 28.8767 82.9883 25.212V25.2047L82.9912 25.2003Z" fill="#F42112"/>
<path d="M108.39 19.474C109.405 19.474 110.242 19.8371 110.949 20.5852C111.404 21.0674 111.919 21.3231 112.439 21.3231C113.617 21.3231 114.614 20.3179 114.614 19.1283C114.614 18.7492 114.493 18.3918 114.274 18.1231C112.997 16.5587 110.902 15.6233 108.671 15.6233C106.186 15.6233 103.814 16.6488 101.994 18.5124C100.329 20.2162 99.3228 22.4865 99.2269 24.7496H99.2139V25.1127C99.2139 28.9532 102.27 31.8481 106.321 31.8481C108.474 31.8481 110.528 31.0827 112.265 29.633C112.743 29.2292 113.041 28.5785 113.041 27.9336C113.041 26.9415 112.301 26.1934 111.322 26.1934C110.831 26.1934 110.301 26.4229 109.7 26.8935C108.75 27.63 107.707 28.0033 106.603 28.0033C104.648 28.0033 103.282 26.6292 103.282 24.6624C103.282 21.8983 105.67 19.474 108.392 19.474H108.39Z" fill="#F42112"/>
<path d="M118.918 8.08897C119.163 6.90951 120.248 5.96826 121.436 5.96826C122.624 5.96826 123.409 6.90951 123.163 8.08897L121.429 16.8667C122.491 16.107 123.67 15.6872 125.009 15.6872C128.622 15.6872 130.744 18.8377 129.929 23.1111L128.654 29.6243C128.44 30.8038 127.323 31.745 126.135 31.745C124.947 31.745 124.195 30.8038 124.408 29.6243L125.771 22.6521C126.167 20.6491 125.137 19.6207 123.616 19.6207C122.096 19.6207 120.701 20.6491 120.313 22.6521L118.951 29.6243C118.705 30.8038 117.62 31.745 116.432 31.745C115.244 31.745 114.46 30.8038 114.705 29.6243L118.928 8.08897H118.92H118.918Z" fill="#F42112"/>
<path d="M131.472 25.2003C131.472 20.2298 135.298 15.679 140.36 15.679C142.183 15.679 143.697 16.3442 144.757 17.4365C145.122 16.4386 146.12 15.679 147.181 15.679C148.362 15.679 149.154 16.6202 148.908 17.7997L146.603 29.6233C146.39 30.8028 145.264 31.744 144.084 31.744C143.174 31.744 142.507 31.1979 142.357 30.4062C141.05 31.2531 139.537 31.744 137.866 31.744C134.039 31.744 131.465 28.8317 131.465 25.1989H131.472V25.2003ZM143.578 22.8661C143.578 21.0461 142.42 19.6211 140.511 19.6211C137.905 19.6211 135.75 22.0193 135.75 24.5598C135.75 26.3798 137.025 27.8047 138.935 27.8047C141.541 27.8047 143.578 25.4066 143.578 22.8661Z" fill="#F42112"/>
<path d="M152.56 17.8009C152.806 16.6214 153.899 15.6802 155.08 15.6802C156.261 15.6802 157.053 16.6214 156.807 17.8009L154.502 29.6245C154.255 30.804 153.17 31.7452 151.982 31.7452C150.794 31.7452 150.009 30.804 150.255 29.6245L152.56 17.8009Z" fill="#F42112"/>
<path d="M206.848 13.6249H204.407C203.916 13.6249 203.449 13.3954 203.148 13.0076C202.847 12.6197 202.744 12.1055 202.878 11.6305L203.409 9.65219C203.6 8.96369 204.226 8.48145 204.938 8.48145H207.378C207.869 8.48145 208.336 8.71095 208.637 9.09877C208.939 9.4866 209.042 10.0008 208.907 10.4758L208.376 12.4541C208.187 13.1426 207.561 13.6249 206.848 13.6249Z" fill="#F42112"/>
<path d="M181.344 25.2003C181.344 20.2298 185.17 15.679 190.232 15.679C192.055 15.679 193.569 16.3442 194.629 17.4365C194.994 16.4386 195.992 15.679 197.053 15.679C198.234 15.679 199.026 16.6202 198.78 17.7997L196.475 29.6233C196.262 30.8028 195.136 31.744 193.957 31.744C193.046 31.744 192.379 31.1979 192.229 30.4062C190.922 31.2531 189.409 31.744 187.738 31.744C183.911 31.744 181.337 28.8317 181.337 25.1989H181.344V25.2003ZM193.45 22.8661C193.45 21.0461 192.292 19.6211 190.383 19.6211C187.777 19.6211 185.622 22.0193 185.622 24.5598C185.622 26.3798 186.897 27.8047 188.807 27.8047C191.413 27.8047 193.45 25.4066 193.45 22.8661Z" fill="#F42112"/>
<path d="M202.455 17.8009C202.7 16.6214 203.794 15.6802 204.975 15.6802C206.156 15.6802 206.947 16.6214 206.702 17.8009L204.397 29.6245C204.15 30.804 203.065 31.7452 201.877 31.7452C200.688 31.7452 199.904 30.804 200.149 29.6245L202.455 17.8009Z" fill="#F42112"/>
<path d="M158.32 22.5015C159.136 18.2282 162.566 15.679 166.48 15.679C170.395 15.679 172.976 18.8295 172.153 23.1029L170.876 29.6161C170.63 30.7955 169.538 31.7368 168.357 31.7368C167.176 31.7368 166.385 30.7955 166.63 29.6161L167.992 22.6439C168.389 20.6728 167.359 19.6124 165.838 19.6124C164.318 19.6124 162.923 20.6728 162.535 22.6439L161.173 29.6161C160.926 30.7955 159.834 31.7368 158.653 31.7368C157.472 31.7368 156.68 30.7955 156.926 29.6161L158.32 22.4928V22.5015Z" fill="#F42112"/>
<path d="M208.281 39.7066L5.21879 40C4.12503 40 3.23899 39.1139 3.23899 38.0216C3.23899 36.9293 4.12649 36.0433 5.21879 36.0433L208.288 35.7499C209.738 35.7499 211.006 34.7128 211.283 33.2878L216.408 7.60549C216.591 6.70346 216.361 5.77674 215.774 5.07226C215.188 4.36052 214.332 3.95671 213.414 3.95671L12.191 4.25013C10.8053 4.25013 9.59239 5.18411 9.23652 6.5219L3.89699 26.9184C3.61955 27.9788 2.5345 28.6048 1.48141 28.3347C0.419609 28.0572 -0.206435 26.9736 0.0637371 25.9205L5.40181 5.50948C6.2254 2.43881 9.01428 0.293413 12.191 0.293413L213.405 0C215.513 0 217.493 0.933982 218.832 2.56373C220.171 4.19348 220.701 6.31564 220.29 8.38115L215.164 34.0635C214.515 37.3317 211.616 39.7066 208.281 39.7066Z" fill="#F42112"/>
</g>
<defs>
<clipPath id="clip0_1048_1093">
<rect width="220.427" height="40" fill="white"/>
</clipPath>
</defs>
</svg>
